HIERARCHY
ROOT joint_Root
{
	OFFSET 0.0 0.0 0.0
	CHANNELS 6 Xposition Yposition Zposition Zrotation Xrotation Yrotation 
	JOINT Hips
	{
		OFFSET 4.5925 91.4895 -427.239
		CHANNELS 6 Xposition Yposition Zposition Zrotation Xrotation Yrotation 
		JOINT Spine
		{
			OFFSET 15.7357 0.0 0.0
			CHANNELS 6 Xposition Yposition Zposition Zrotation Xrotation Yrotation 
			JOINT Chest
			{
				OFFSET 8.98455 -0.406207 0.0
				CHANNELS 6 Xposition Yposition Zposition Zrotation Xrotation Yrotation 
				JOINT Neck
				{
					OFFSET 16.3773 0.0 0.0
					CHANNELS 6 Xposition Yposition Zposition Zrotation Xrotation Yrotation 
					JOINT Head
					{
						OFFSET 6.45672 0.0 0.0
						CHANNELS 6 Xposition Yposition Zposition Zrotation Xrotation Yrotation 
						End Site
						{
							OFFSET 0.0 0.0 0.0
						}
					}
				}
				JOINT Shoulder_L
				{
					OFFSET 12.9942 -0.242716 4.98039
					CHANNELS 6 Xposition Yposition Zposition Zrotation Xrotation Yrotation 
					JOINT UpperArm_L
					{
						OFFSET 5.34809 0.0 0.0
						CHANNELS 6 Xposition Yposition Zposition Zrotation Xrotation Yrotation 
						JOINT LowerArm_L
						{
							OFFSET 24.3286 1.87007e-05 0.0
							CHANNELS 6 Xposition Yposition Zposition Zrotation Xrotation Yrotation 
							JOINT Hand_L
							{
								OFFSET 22.2916 0.0 0.0
								CHANNELS 6 Xposition Yposition Zposition Zrotation Xrotation Yrotation 
								End Site
								{
									OFFSET 0.0 0.0 0.0
								}
							}
						}
					}
				}
				JOINT Shoulder_R
				{
					OFFSET 12.9945 -0.242716 -4.98039
					CHANNELS 6 Xposition Yposition Zposition Zrotation Xrotation Yrotation 
					JOINT UpperArm_R
					{
						OFFSET -5.34813 0.0 0.0
						CHANNELS 6 Xposition Yposition Zposition Zrotation Xrotation Yrotation 
						JOINT LowerArm_R
						{
							OFFSET -24.3289 0.000322201 0.0
							CHANNELS 6 Xposition Yposition Zposition Zrotation Xrotation Yrotation 
							JOINT Hand_R
							{
								OFFSET -22.2915 -0.000108084 0.0
								CHANNELS 6 Xposition Yposition Zposition Zrotation Xrotation Yrotation 
								End Site
								{
									OFFSET 0.0 0.0 0.0
								}
							}
						}
					}
				}
			}
		}
		JOINT UpperLeg_L
		{
			OFFSET -2.19248 -6.46944 0.0
			CHANNELS 6 Xposition Yposition Zposition Zrotation Xrotation Yrotation 
			JOINT LowerLeg_L
			{
				OFFSET 39.0811 0.0 -1.23785e-05
				CHANNELS 6 Xposition Yposition Zposition Zrotation Xrotation Yrotation 
				JOINT Foot_L
				{
					OFFSET 40.9854 0.0 -1.26872e-05
					CHANNELS 6 Xposition Yposition Zposition Zrotation Xrotation Yrotation 
					JOINT Toes_L
					{
						OFFSET 11.7543 0.0 0.0
						CHANNELS 6 Xposition Yposition Zposition Zrotation Xrotation Yrotation 
						End Site
						{
							OFFSET 0.0 0.0 0.0
						}
					}
				}
			}
		}
		JOINT UpperLeg_R
		{
			OFFSET -2.19251 6.46944 0.0
			CHANNELS 6 Xposition Yposition Zposition Zrotation Xrotation Yrotation 
			JOINT LowerLeg_R
			{
				OFFSET -39.0811 -0.00228153 -0.0401928
				CHANNELS 6 Xposition Yposition Zposition Zrotation Xrotation Yrotation 
				JOINT Foot_R
				{
					OFFSET -40.9854 0.0 0.0
					CHANNELS 6 Xposition Yposition Zposition Zrotation Xrotation Yrotation 
					JOINT Toes_R
					{
						OFFSET -11.7543 0.0 0.0
						CHANNELS 6 Xposition Yposition Zposition Zrotation Xrotation Yrotation 
						End Site
						{
							OFFSET 0.0 0.0 0.0
						}
					}
				}
			}
		}
	}
}
MOTION
Frames:	7
Frame Time:	0.0333333
0.000000 0.000000 0.000000 0.000000 0.000000 -0.000000 0.072739 80.975200 -3.823180 89.239500 -5.323530 7.412400 15.735700 0.000005 -0.000001 89.678700 80.462800 -88.431600 8.984550 -0.406207 -0.000000 11.310000 -0.067604 2.499810 16.377300 -0.000001 -0.000001 -3.066960 -3.804170 2.209390 6.456720 -0.000001 -0.000000 -2.941970 -4.885670 9.580310 12.994200 -0.242716 4.980390 -90.819100 3.123580 -75.298000 5.348090 -0.000007 -0.000001 -67.148100 7.284190 -16.793000 24.328600 0.000019 0.000005 5.252540 14.680700 -19.938300 22.291600 -0.000001 0.000005 5.858390 5.234350 1.841250 12.994500 -0.242716 -4.980390 88.722100 8.894380 -81.790100 -5.348130 -0.000001 -0.000004 -62.191200 21.073600 -9.830660 -24.328900 0.000322 -0.000009 -3.732720 -5.778090 -32.935700 -22.291500 -0.000108 -0.000004 22.779700 5.490990 -6.179690 -2.192480 -6.469440 -0.000000 -174.704000 -14.367200 -22.150300 39.081100 -0.000007 -0.000012 -0.648992 0.288886 66.006100 40.985400 -0.000006 -0.000013 1.646180 4.447550 -86.083800 11.754300 -0.000000 0.000003 -0.000653 -0.004973 -16.757300 -2.192510 6.469440 -0.000001 177.321000 11.067600 157.226000 -39.081100 -0.002282 -0.040193 0.091142 -0.038833 66.186100 -40.985400 0.000008 0.000006 6.601550 4.645340 -85.890300 -11.754300 -0.000006 -0.000006 -1.304580 -1.657330 -16.245500
0.000000 0.000000 0.000000 0.000000 0.000000 -0.000000 0.507098 82.852900 -2.983870 90.155800 -5.344870 7.543980 15.735700 0.000005 -0.000001 89.875000 81.084400 -87.638800 8.984550 -0.406207 -0.000000 10.069000 0.006311 4.468800 16.377300 -0.000001 -0.000001 -1.885810 -4.066410 2.429100 6.456720 -0.000001 -0.000000 -2.126640 -5.033750 7.629030 12.994200 -0.242716 4.980390 -90.429100 1.572930 -74.735600 5.348090 -0.000007 -0.000001 -61.414500 0.021878 -20.212900 24.328600 0.000019 0.000005 4.408820 14.475600 -17.140800 22.291600 -0.000001 0.000005 6.830210 5.219890 2.210030 12.994500 -0.242716 -4.980390 88.565300 8.869300 -80.773400 -5.348130 -0.000001 -0.000004 -62.323400 17.984600 -7.564670 -24.328900 0.000322 -0.000009 -4.925170 -8.787340 -29.426300 -22.291500 -0.000108 -0.000004 24.544100 5.480950 -5.784540 -2.192480 -6.469440 -0.000000 -175.806000 -15.086800 -18.635600 39.081100 -0.000007 -0.000012 -0.556345 0.314970 60.485200 40.985400 -0.000006 -0.000013 2.015370 4.880000 -84.072800 11.754300 -0.000000 0.000003 -0.000598 -0.004623 -16.745300 -2.192510 6.469440 -0.000001 175.768000 11.372600 160.436000 -39.081100 -0.002282 -0.040193 0.079165 -0.041764 61.201200 -40.985400 0.000008 0.000006 6.256070 5.619120 -84.042500 -11.754300 -0.000006 -0.000006 -1.242010 -1.572420 -16.291200
0.000000 0.000000 0.000000 0.000000 0.000000 -0.000000 0.984406 85.576000 -1.913170 91.319500 -4.780410 8.200620 15.735700 0.000005 -0.000001 90.417900 81.744200 -87.219300 8.984550 -0.406207 -0.000000 8.749140 0.147462 6.380200 16.377300 -0.000001 -0.000001 -0.343572 -4.468400 2.412750 6.456720 -0.000001 -0.000000 -1.194910 -5.272170 6.026320 12.994200 -0.242716 4.980390 -89.887600 -0.400830 -74.335300 5.348090 -0.000007 -0.000001 -55.461700 -12.301500 -26.084600 24.328600 0.000019 0.000005 3.232080 13.015000 -14.075500 22.291600 -0.000001 0.000005 8.226950 5.171220 3.429980 12.994500 -0.242716 -4.980390 88.422100 8.452480 -79.385500 -5.348130 -0.000001 -0.000004 -61.818900 14.395200 -4.012190 -24.328900 0.000322 -0.000009 -5.407460 -10.837900 -26.717400 -22.291500 -0.000108 -0.000004 23.515900 5.482810 -5.855460 -2.192480 -6.469440 -0.000000 -176.986000 -15.684400 -12.788400 39.081100 -0.000007 -0.000012 -0.436040 0.345938 51.573800 40.985400 -0.000006 -0.000013 2.407620 5.863080 -80.501400 11.754300 -0.000000 0.000003 -0.000407 -0.003356 -16.701200 -2.192510 6.469440 -0.000001 173.679000 12.240800 165.932000 -39.081100 -0.002282 -0.040193 0.063650 -0.045204 53.195400 -40.985400 0.000008 0.000006 5.720240 6.896790 -80.777900 -11.754300 -0.000006 -0.000006 -1.112280 -1.395230 -16.496300
0.000000 0.000000 0.000000 0.000000 0.000000 -0.000000 1.294320 88.231000 -0.969135 91.817200 -4.003870 7.558710 15.735700 0.000005 -0.000001 91.686100 82.859900 -87.530700 8.984550 -0.406207 -0.000000 6.508160 0.373797 8.280210 16.377300 -0.000001 -0.000001 1.039000 -5.085400 2.724870 6.456720 -0.000001 -0.000000 -0.319727 -5.713560 4.757600 12.994200 -0.242716 4.980390 -89.297600 -2.537150 -74.517100 5.348090 -0.000007 -0.000001 -48.341700 -25.835500 -33.841800 24.328600 0.000019 0.000005 2.104280 9.597300 -12.427900 22.291600 -0.000001 0.000005 9.328820 5.160450 3.693180 12.994500 -0.242716 -4.980390 88.382400 7.547250 -77.864500 -5.348130 -0.000001 -0.000004 -60.764200 11.430400 -0.163735 -24.328900 0.000322 -0.000009 -4.181990 -9.272930 -24.399000 -22.291500 -0.000108 -0.000004 21.725000 5.473090 -5.485360 -2.192480 -6.469440 -0.000000 -177.649000 -16.349600 -7.801160 39.081100 -0.000007 -0.000012 -0.259227 0.292700 41.529900 40.985400 -0.000006 -0.000013 2.550040 7.362210 -76.174600 11.754300 -0.000000 0.000003 -0.000172 -0.001628 -16.639200 -2.192510 6.469440 -0.000001 172.624000 13.815300 170.697000 -39.081100 -0.002282 -0.040193 0.047508 -0.045869 43.964200 -40.985400 0.000008 0.000006 5.259370 8.320790 -76.671700 -11.754300 -0.000006 -0.000006 -0.925347 -1.146320 -16.851300
0.000000 0.000000 0.000000 0.000000 0.000000 -0.000000 1.418130 90.190300 -0.454060 91.778100 -3.484890 5.843900 15.735700 0.000005 -0.000001 92.853300 84.145600 -88.074900 8.984550 -0.406207 -0.000000 3.928680 0.422735 9.531750 16.377300 -0.000001 -0.000001 2.074260 -5.640530 3.294110 6.456720 -0.000001 -0.000000 -0.042331 -6.018430 4.571430 12.994200 -0.242716 4.980390 -88.525200 -5.866860 -75.859100 5.348090 -0.000007 -0.000001 -36.538900 -38.226000 -37.525500 24.328600 0.000019 0.000005 0.394257 1.535680 -14.507400 22.291600 -0.000001 0.000005 9.656160 5.214120 2.363200 12.994500 -0.242716 -4.980390 88.401500 6.766970 -76.675700 -5.348130 -0.000001 -0.000004 -59.356000 10.057900 2.959230 -24.328900 0.000322 -0.000009 -3.070130 -7.524780 -22.264300 -22.291500 -0.000108 -0.000004 20.858300 5.463600 -5.132910 -2.192480 -6.469440 -0.000000 -178.094000 -17.570600 -4.880540 39.081100 -0.000007 -0.000012 0.006258 -0.009660 32.931200 40.985400 -0.000006 -0.000013 4.296840 8.876320 -72.742000 11.754300 -0.000000 0.000003 -0.778216 -0.979134 -15.437700 -2.192510 6.469440 -0.000001 172.697000 15.596500 173.481000 -39.081100 -0.002282 -0.040193 0.035306 -0.044422 35.782300 -40.985400 0.000008 0.000006 5.143270 9.687160 -72.720200 -11.754300 -0.000006 -0.000006 -0.825125 -1.014690 -17.194700
0.000000 0.000000 0.000000 0.000000 0.000000 -0.000000 1.394180 91.406800 -0.152798 91.725000 -3.957450 4.184920 15.735700 0.000005 -0.000001 92.983100 85.007100 -88.084800 8.984550 -0.406207 -0.000000 2.213100 0.282675 9.781640 16.377300 -0.000001 -0.000001 2.462820 -5.627680 3.911860 6.456720 -0.000001 -0.000000 -0.509892 -6.319380 5.203570 12.994200 -0.242716 4.980390 -87.173400 -11.521200 -76.115600 5.348090 -0.000007 -0.000001 -20.435400 -49.462500 -33.670000 24.328600 0.000019 0.000005 -4.371870 -12.127500 -19.971700 22.291600 -0.000001 0.000005 9.912170 5.289840 0.357118 12.994500 -0.242716 -4.980390 88.344400 6.734260 -76.153600 -5.348130 -0.000001 -0.000004 -57.442600 9.217610 4.676890 -24.328900 0.000322 -0.000009 -2.400600 -6.418540 -20.547600 -22.291500 -0.000108 -0.000004 20.780500 5.449220 -4.612110 -2.192480 -6.469440 -0.000000 -177.949000 -19.710900 -3.987990 39.081100 -0.000007 -0.000012 0.012412 -0.023189 28.157400 40.985400 -0.000006 -0.000013 3.387420 11.347800 -69.274400 11.754300 -0.000000 0.000003 0.001435 0.029295 -15.388400 -2.192510 6.469440 -0.000001 173.014000 17.108000 175.008000 -39.081100 -0.002282 -0.040193 0.026140 -0.040140 29.637000 -40.985400 0.000008 0.000006 5.327520 11.537200 -69.868200 -11.754300 -0.000006 -0.000006 -0.832448 -1.022770 -17.265300
0.000000 0.000000 0.000000 0.000000 0.000000 -0.000000 1.527140 92.017900 -0.054355 91.275500 -5.024610 2.998440 15.735700 0.000005 -0.000001 94.156700 85.476200 -89.223300 8.984550 -0.406207 -0.000000 1.260700 0.376165 9.854230 16.377300 -0.000001 -0.000001 2.451040 -5.382680 3.340190 6.456720 -0.000001 -0.000000 -0.933750 -7.014710 6.853410 12.994200 -0.242716 4.980390 -84.768500 -17.852600 -73.375700 5.348090 -0.000007 -0.000001 -3.629010 -60.001400 -26.161300 24.328600 0.000019 0.000005 -8.463440 -16.373700 -27.828600 22.291600 -0.000001 0.000005 12.068300 5.346400 -1.262340 12.994500 -0.242716 -4.980390 88.263500 6.754470 -75.546200 -5.348130 -0.000001 -0.000004 -55.420700 7.547980 5.899480 -24.328900 0.000322 -0.000009 -1.862220 -5.028810 -20.340800 -22.291500 -0.000108 -0.000004 21.413700 5.428080 -3.875680 -2.192480 -6.469440 -0.000000 -177.796000 -20.880400 -3.658380 39.081100 -0.000007 -0.000012 0.010657 -0.022494 25.349600 40.985400 -0.000006 -0.000013 3.118970 11.923000 -67.482900 11.754300 -0.000000 0.000003 0.001057 0.020234 -15.756100 -2.192510 6.469440 -0.000001 173.233000 19.977200 175.934000 -39.081100 -0.002282 -0.040193 0.020519 -0.036111 25.479200 -40.985400 0.000008 0.000006 5.621680 15.424100 -68.244100 -11.754300 -0.000006 -0.000006 -0.759481 -0.934295 -17.094700
